<?xml version="1.0" encoding="utf-8"?>
<!-- Generator: Adobe Adobe Illustrator 24.2.0, SVG Export Plug-In . SVG Version: 6.00 Build 0)  -->
<svg version="1.1" id="Layer_1" xmlns="http://www.w3.org/2000/svg" xmlns:xlink="http://www.w3.org/1999/xlink" x="0px" y="0px"
	 width="648px" height="648px" viewBox="0 0 648 648" style="enable-background:new 0 0 648 648;" xml:space="preserve">
<style type="text/css">
	.st0{clip-path:url(#SVGID_2_);}
	.st1{clip-path:url(#SVGID_4_);fill:#D6D6D6;}
	.st2{clip-path:url(#SVGID_4_);fill:#38D430;}
	.st3{clip-path:url(#SVGID_4_);fill:#0082CB;}
</style>
<g>
	<g>
		<defs>
			<rect id="SVGID_1_" width="648" height="648"/>
		</defs>
		<clipPath id="SVGID_2_">
			<use xlink:href="#SVGID_1_"  style="overflow:visible;"/>
		</clipPath>
		<g class="st0">
			<defs>
				<rect id="SVGID_3_" width="648" height="648"/>
			</defs>
			<clipPath id="SVGID_4_">
				<use xlink:href="#SVGID_3_"  style="overflow:visible;"/>
			</clipPath>
			<path class="st1" d="M238.24,148.64c0.67,0.93,1.53,0.9,2.31,0.6c0.28-1,1.02-2.57,1.83-4.39c1.85-4.19,4.25-9.85,2.24-12.64
				c-1.9-2.63-5.25-0.86-9.65,1.36c2.15,6.25,2.44,9.94,2.59,12.22C237.65,147.13,237.79,148.02,238.24,148.64"/>
			<path class="st1" d="M173.5,260.45c6.91,4.96,14.73,6.11,19.44-0.45c6.2-8.64-0.77-21.37-8.29-26.76
				c-3.97-2.85-8.14-3.62-10.43-0.42c-0.81,1.12-1.03,2.53-0.64,3.99c1.5,0.29,3.65,1.31,5.89,2.92c5.01,3.6,10.31,9.36,11.69,15.45
				c-2.77,1.68-7.12,0.26-11.88-3.15c-14.17-10.17-32.26-39.51-22.1-56.96c2.18-0.66,4.89,0.11,9.22,3.21
				c6.31,4.53,15.15,17.94,24.12,31.7c9.68,14.8,19.42,30.04,26.08,34.81c7.78,5.58,13.53,4.86,16.32,0.97
				c3.1-4.32,3.54-11.86,0.82-22.32c6.57,3.8,11.97,4.66,14.76,0.77c7.56-10.54-2.08-28.85-31.26-66.81
				c-15.51-20.16-23.19-33-17.18-41.38c0.74-1.04,1.85-2.21,2.73-2.89c-0.14-0.36-0.33-0.63-0.59-0.82c-1.82-1.3-6.1,0.47-9.51,5.22
				c-6.57,9.16-3.55,19.18,19.26,47.6c18.99,23.7,33.9,39.24,34.43,54.55c-1.99,0.4-5.3-1.19-9.28-4.04
				c-2.59-1.86-5.52-4.35-8.64-7.11c-4.61-10.91-11.59-23.63-21.17-38.36c-4.6-7.1-11-15.88-15.13-19.23
				c-3.42-2.72-7.96-2.96-10.56,0.67c-7.13,9.94,23.52,51.7,47.46,68.87c2.22,8.4,2.98,15.36,1.23,20.91
				c-1.32-0.16-2.72-0.77-4.19-1.83c-6.65-4.77-16.99-20.83-27-36.26c-8.95-13.62-17.82-26.79-23.79-31.07
				c-8.99-6.45-20.3-2.91-25.32,4.09C137.71,213.44,152.67,245.51,173.5,260.45 M185.92,172.89c0.42-0.22,1.15,0.04,2.1,0.72
				c6.22,4.46,21.85,26.28,34.14,48.58C204.87,204.68,186.92,180.8,185.92,172.89"/>
			<path class="st1" d="M235.68,164.49c1-0.61,2.24-1.64,3.66-3.39c3.12,6.45,4.47,38.14,9.95,47.01c1.9,3.08,6.85,3.39,10.29,1.26
				c3.77-2.34,5.7-11.27,6.45-21c0.48,1.86,1.01,3.5,1.57,4.86c1.83,4.42,7.32,6.3,11.25,4.67c4.5-1.86,8.01-8.74,10.7-16.73
				c0.06,0.45,0.13,0.89,0.2,1.31c0.89,4.81,6,7.87,9.45,7.23c5.02-0.93,8.72-10.16,12-22.88c-1.02,6.79-2.41,10.94-1.76,14.5
				c0.54,2.93,3.82,5.46,6.65,4.94c6.28-1.16,12.25-14.49,11.42-18.99c-0.19-1.05-0.86-1.14-1.68-0.88
				c-2.05,5.89-5.08,12.3-9.34,15.03c0.87-6.98,3.18-17.36,5.1-27.45c3.48-18.06,6.71-33.91,8.96-45.15
				c1.15-6.05,2.73-11.54,2.35-13.63c-0.43-2.3-4.75-1.72-8.29-0.96c-2.77,11.33-6.74,30.24-9.85,45.63
				c-1.52-5.88-6.64-8.4-10.3-7.72c-5.48,1.01-8.97,8.6-11.46,18.03c0,0,0,0,0,0.01c0,0.02-0.01,0.03-0.01,0.05
				c-0.61,2.33-1.16,4.77-1.67,7.25c-3.45,14.94-7.02,29.11-12.34,35.17c-1.1-0.7-2.1-2.01-2.87-3.88
				c-1.71-4.13-2.71-10.73-3.41-18.84c11.51-8.9,12.72-50.83,7.35-63.81c-0.98-2.36-4.29-3.98-6.65-3.01
				c-9.13,3.77-12.01,32.64-10.89,57.52l0,0c-0.09,17.76,0.34,34.81-4.35,43.6c-3.96-9.43-5.66-38.66-9.75-45.26
				c-1.96-3.17-5.19-3.54-8.81-1.3c-2.35,1.45-4.64,3.62-7.41,5.21c0.1,0.56,0.29,1.07,0.57,1.52
				C233.27,165.23,234.15,165.44,235.68,164.49 M301.44,158.46c3.12-15.29,4.96-19.96,7.06-20.34c1.78-0.33,3.84,1.45,4.39,5.03
				c0.71,3.87-1.44,10.33-2.82,16.32c-1.87,8.03-5.79,23.14-11.28,25.02C297.74,181.76,298.55,172.09,301.44,158.46 M276.17,105.9
				c2.15,1.87,2.38,51.15-3.82,59.82c-0.24-3.36-0.46-6.95-0.58-10.58C270.68,133.26,272.69,109.18,276.17,105.9"/>
			<path class="st1" d="M360.19,204.45c18.45,4.69,32.7-8.58,36.94-25.28c5.72-22.47-3.95-37.11,0.85-55.97
				c2.36-9.28,8.62-14.49,14.04-13.33c3.7,3.58,4.42,9.36,2.9,15.34c-1.63,5.95-5.57,11.97-11.01,15.64c1,1.68,2.39,2.69,4.04,3.11
				c3.61,0.92,8.26-1.41,11.74-6.01c1.87-2.6,3.61-5.56,5.25-8.54c4.65-8.36,9.49-17.45,19.56-19.94c-0.19-4-2.86-6.87-5.85-7.63
				c-6.49-1.65-9.96,7.23-12.27,16.3c-0.63,2.47-1.16,4.97-1.63,7.27c0.55-8.2-3-16.68-14.75-19.67
				c-8.35-2.12-19.62,3.35-23.16,17.26c-5.19,20.41,4.99,32.99-0.72,55.46c-2.65,10.41-13.46,22.26-24.24,21.93
				c-10.04-4.09-11.86-14.21-9.39-23.9c3.04-11.96,11.81-23.12,19.26-23.08c2.31,2.12,2.71,5.74,1.71,9.65
				c-1.84,7.21-7.73,15.26-13.41,18.65c0.48,1.55,2.08,3.05,4.45,3.66c8.35,2.12,15.17-5.69,17.53-14.97
				c2.25-8.86,0.05-18.75-9.64-21.22c-14.33-3.64-27.18,9.33-30.82,23.66C338.23,185.92,342.15,199.86,360.19,204.45"/>
			<path class="st1" d="M538.21,215.18c-5.2-7.93-32.04-5.86-55.61-0.58c0,0,0,0,0,0c-0.01,0-0.03,0.01-0.04,0.01
				c-3.66,0.82-7.24,1.71-10.64,2.66c-14.44,3.36-29.97,5.88-39.72,4.52c12.59-6.06,22.93-11.47,26.88-13.58
				c9.38-5.01,18.77-9.12,20.76-11.2c1.69-1.77-0.78-4.72-4.37-7.58c-19.79,10.5-47.2,20.32-52.1,16.06
				c3.65-5.19,36.31-15.73,41.9-21.57c1.84-1.92,1.66-3.57-3.71-8.27c-2.16,1.93-7.04,4.19-12.83,6.64c-0.01,0-0.01,0.01-0.02,0.01
				c-5.68,2.4-12.23,5-17.95,7.67c-9.62,3.98-18.48,7.12-24.4,7.07c-0.28-1.17-0.13-2.44,0.96-4.02c0.89-1.45,2.56-3.17,5.07-5.25
				c11.67-9.33,20.86-16.43,28.6-22.17c5.56,3.14,8.43,4.15,9.32,2.7c0.17-0.27,0.3-0.69,0.3-1.31c-2-1.22-4.03-2.58-6.21-3.92
				c3.34-2.2,6.84-4.67,7.73-6.12c1.27-2.09,0.55-4.77-4.65-7.7c-2.22,1.39-6.64,4.55-11.97,8.39c-1.54-0.94-3.09-1.88-4.6-2.68
				c-1.33-0.68-2.19-0.09-2.74,0.82c-0.17,0.27-0.22,0.36-0.35,0.78c1.25,1.01,2.78,2.19,4.54,3.39
				c-13.54,9.93-30.71,23.38-33.81,28.46c-2.44,4-0.74,9.39,3.25,11.83c2.68,1.56,8.86,0.33,15.95-2.06
				c-3.06,3.77-0.73,8.45,1.63,10.71c4.07,3.9,13.8,1.59,25.29-3.01c-6.18,2.91-14.52,7.15-22.64,11.16
				c-3.42-1.81-6.4-3.78-8.68-5.08c-12.28-7.79-20.06-5.82-24.55-1.14c-4.57,4.76-5.07,12.82,1.68,19.3
				c4.22,4.05,14.76,4.13,25.41-0.68c4.1-1.82,8.05-3.63,11.92-5.52c5.57,2.23,14.49,2.1,23.56,0.87c-1.03,0.54-1.95,1.07-2.76,1.6
				c-4,2.63-4.81,8.37-2.48,11.93c2.99,4.56,11.46,6.52,20.36,7.04c-0.01,0.01-0.03,0.01-0.04,0.02
				c-6.76,2.85-8.64,11.02-5.42,18.66c2.8,6.67,17.67,10.45,21.98,8.64c0.98-0.41,0.93-1.08,0.5-1.83
				c-6.95-0.88-14.75-4.07-18.3-10.3c0.15-2.95,1.69-4.75,4.54-5.95c0.88-0.37,1.91-0.68,3.03-1.04c0.12,1.1,0.39,2.03,0.76,2.91
				c5.07,12.06,29.18,13.69,37.42,10.23c7.16-3.01,7.3-9.53,5.2-14.53c-1.9-4.51-5.32-6.88-9.33-8.19
				c-5.19-1.76-11.68-2.51-18.17-2.44l-0.01,0c-16.18-0.12-29.26,0.7-37.34-4.05c0.48-1.21,1.58-2.44,3.27-3.55
				c3.74-2.45,10.04-4.68,17.87-6.89c10.9,9.64,52.32,2.95,64.06-4.76C538.64,220.88,539.61,217.32,538.21,215.18 M396.06,227.97
				c-3.31-3.32-2.5-8.15,0.52-11.3c5.08-5.3,11.85-1.9,21.64,2.33C408.09,223.88,399.07,228.05,396.06,227.97 M513.71,256.77
				c-0.19,0.66-0.89,1.18-1.97,1.64c-7.16,3.01-30.79,2.79-35.97-5.41C488.99,250.67,511.48,252.28,513.71,256.77 M476.52,225.88
				c3.25-0.86,6.74-1.75,10.29-2.55c21.28-5.18,45.32-7.72,49.19-4.92C534.57,220.88,486.2,230.35,476.52,225.88"/>
			<path class="st1" d="M430.95,446.43c-0.49-1.24-1.34-1.19-2.28-0.67c-0.92,7.42-2.99,15.58-7.21,20.14
				c-1.88-5.43-0.56-18.33,0.34-29.77c1.07-13.52,1.3-24.83-0.38-29.05c-2.28-5.71-9.2-5.39-13.55-3.65
				c-7.57,3.02-9.46,22.05-11.41,43.11c0.06-12.11,0.36-26.47-1.47-31.06c-2.18-5.46-8.43-5.26-12.28-3.73
				c-7.2,2.87-8.23,21.55-11.16,43.73c0.43-14.41,0.43-25.2-0.95-28.68c-1.73-4.34-5.31-5.36-9.52-3.68
				c-3.22,1.29-6.53,3.47-10.3,4.83c-0.05,0.6,0.02,1.14,0.22,1.64c0.49,1.24,1.69,2.06,4.41,0.97c1.24-0.5,3-1.49,5.07-3.17
				c0.16,1.27,0.26,2.67,0.34,4.13c-6.29,20.57-14.83,46.61-28.94,62.26c4.19-15.68,7.29-28.71,8.55-33.93
				c2.96-13.02,6.8-25.31,6.47-28.9c-0.22-2.4-3.22-2.93-7.21-2.56c-1.2,0.11-2.39,0.22-3.58,0.46
				c-6.34,27.42-19.57,61.51-27.65,62.65c-1.71-6.95,13.53-42.57,12.7-51.62c-0.68-7.45-5.05-9.73-7.98-9.46
				c-3.46,0.32-7.24,1.47-11.25,1.7c-0.21,0.69-0.29,1.23-0.24,1.77c0.14,1.46,1.15,2.31,3.81,2.07c1.32-0.26,2.9-0.53,4.98-1.26
				c0.6,9.47-14.93,41.89-13.7,55.33c0.61,6.65,7.35,8.45,11.61,8.06c7.05-0.65,12.87-11.78,17.96-26.47
				c-2.33,8.26-5.17,19.66-8.05,30.66c-4.54,1.76-8.85,2.96-11.97,4.05c-17.75,5.39-22.31,14.26-21.56,22.38
				c0.76,8.25,7.99,15.37,19.96,14.27c7.32-0.67,16.06-10.6,20.27-24.67c1.96-6.35,3.65-12.81,5.38-18.88
				c15.67-9.6,25.78-40.05,30.44-53.78c-0.13,5.27-0.28,10.84-0.18,16.36c0.22,12.43,1,24.49,2.24,27.58
				c1.49,3.72,4.27,3.48,7.49,2.19c0.99-0.4,2.06-0.97,3.18-1.41c-0.86-19.8,5.54-72.56,10.31-73.6c1.78,3.75,0.61,17.02,0.45,31.04
				c-0.06,12.83,0.68,28.36,2.46,32.82c1.24,3.1,5.31,2.48,8.66,1.15c1.11-0.45,2.06-0.97,2.75-1.39
				c-0.88-22.37,6.07-70.9,10.83-71.93c1.64,3.37,0.11,15.77-0.91,28.7c-1.12,12.68-1.1,24.61,0.63,28.95
				c2.23,5.58,8.48,8.26,12.82,6.53C429,469.65,433.08,451.76,430.95,446.43 M307.3,535.88c-6,0.42-10.05-4.31-10.56-9.76
				c-0.71-7.72,5.37-11.63,14.77-15.98c1.67-0.83,3.6-1.67,5.39-2.64C313.32,521.11,309.86,533.1,307.3,535.88"/>
			<path class="st1" d="M297.47,435.61c2.83-6.43,4.56-12.97,5.2-19.08c0.96-9.3-5.48-18.43-15.45-19.47
				c-19.4-2.01-48.05,42.43-57.86,74.86c-0.79,1.98-1.45,4.95-1.45,4.95c-0.9,3.53-1.53,6.96-1.86,10.15
				c-1.21,11.7,3.16,20.07,11.8,20.97c5.18,0.54,10.06-3.79,14.93-10.54c-15.06,28.66-18.22,34.51-27.04,39.24
				c-4.81-4.12-6.55-8.07-6.22-11.26c0.41-3.99,4.17-6.55,10.02-7.29c0.43-4.12-1.52-4.73-5.51-5.14
				c-5.98-0.62-15.76,1.73-16.75,11.29c-0.98,9.43,9.07,17.46,21.3,18.73c7.31,0.76,17.81-7.29,24.67-20.28
				c15.92-30.45,43.76-83.73,44.05-86.53L297.47,435.61z M291.62,411.62c-0.49,4.75-21.8,49.52-30.69,68.01
				c-1.39,2.85-2.31,4.51-2.97,5.35c-5.55,9.29-12.39,17.01-17.45,16.71c-1.74-1.39-2.22-4.53-1.76-8.91
				c0.46-4.39,1.85-10.02,3.97-16.25c10.55-27.92,34.19-70.73,47.34-73.13C291.55,404.49,292.05,407.5,291.62,411.62"/>
			<path class="st2" d="M252,349.25c0.04,0.07,0.07,0.1,0.1,0.17C252.07,349.35,252.03,349.28,252,349.25"/>
			<polygon class="st2" points="407.06,278.95 407.06,278.88 398.74,275.24 392.46,281.83 392.46,281.9 400.75,285.36 			"/>
			<path class="st2" d="M283.73,254.01h5.24c7.01-3.3,15.36-5.2,24.35-5.2c8.98,0,17.34,1.91,24.35,5.2h5.24
				c-8.11-4.61-18.42-7.35-29.58-7.35C302.15,246.66,291.88,249.4,283.73,254.01"/>
			<path class="st2" d="M450.34,336.73c5.03-2.91,15.43-12-13.18-44.84l-11.55-37.32c-10.99-0.69-21.43-0.03-31.6,1.98
				c-10.16,2.05-20.05,5.45-29.93,10.34l3.68,38.91c-1.67,10.72-9.02,25.04-6.17,39.23c5.09,25.4,12.84,45.93,43.84,44.86
				c-0.88,0.26-1.75,0.56-2.59,0.89c-3.67,1.46-6.72,3.84-9.2,7.2c-1.94-0.52-3.98-0.78-6.09-0.78c-3.33,0-6.74,0.66-9.87,1.91
				c-4.49,1.79-8.01,5.01-10.64,9.77c-0.77-0.09-1.56-0.14-2.34-0.14c-2.85,0-5.76,0.59-8.66,1.74c-2.05,0.82-3.93,1.79-5.6,2.65
				c-1.46,0.76-2.84,1.47-4.04,1.93c-1.45-0.27-2.98-0.4-4.59-0.4c-1.05,0-2.17,0.05-3.45,0.17c-1.37,0.13-3.08,0.29-4.97,0.67
				l-8.58,1.75l-0.61,2.65c-2.5-1.58-5.22-2.54-7.88-2.93c0.9-12.26-5.35-23.49-15.26-29.36c3.34,0.45,6.76,0.69,10.24,0.69
				c20.57,0,39.05-8.18,51.82-21.22c-0.59-1.49-1.18-2.98-1.7-4.51c-6.51,7.17-14.79,12.92-24.21,16.69
				c0.15-0.06,0.3-0.12,0.45-0.18c-1.96,0.8-3.97,1.52-6.02,2.14c-0.07,0.02-0.14,0.04-0.21,0.06c-0.39,0.12-0.79,0.23-1.18,0.34
				c-0.17,0.05-0.33,0.09-0.5,0.14c-0.34,0.09-0.69,0.18-1.03,0.27c-0.22,0.06-0.45,0.11-0.67,0.17c-0.31,0.08-0.63,0.15-0.94,0.22
				c-0.26,0.06-0.52,0.12-0.78,0.18c-0.29,0.07-0.59,0.12-0.88,0.19c-0.29,0.06-0.57,0.11-0.86,0.17c-0.28,0.05-0.56,0.1-0.83,0.15
				c-0.31,0.05-0.61,0.11-0.92,0.16c-0.27,0.04-0.54,0.09-0.8,0.13c-0.32,0.05-0.64,0.1-0.96,0.14c-0.26,0.04-0.52,0.07-0.78,0.11
				c-0.33,0.04-0.67,0.08-1,0.12c-0.26,0.03-0.51,0.06-0.76,0.09c-0.35,0.04-0.7,0.07-1.04,0.1c-0.25,0.02-0.49,0.04-0.74,0.06
				c-0.37,0.03-0.74,0.05-1.11,0.07c-0.23,0.01-0.46,0.03-0.69,0.04c-0.4,0.02-0.81,0.03-1.22,0.05c-0.2,0.01-0.39,0.02-0.59,0.02
				c-0.61,0.02-1.21,0.02-1.82,0.02c-0.73,0-1.47-0.02-2.2-0.04c-0.2,0-0.41-0.01-0.61-0.02c-0.57-0.02-1.14-0.05-1.71-0.09
				c-0.17-0.01-0.35-0.02-0.52-0.03c-0.71-0.05-1.43-0.11-2.13-0.18c-0.15-0.02-0.3-0.03-0.45-0.05c-0.56-0.06-1.12-0.13-1.67-0.2
				c-0.23-0.03-0.47-0.06-0.7-0.1c-0.52-0.07-1.03-0.15-1.54-0.24c-0.2-0.03-0.4-0.06-0.6-0.1c-0.62-0.11-1.24-0.23-1.86-0.35
				c-0.35-0.07-0.69-0.14-1.04-0.22c-0.28-0.06-0.56-0.12-0.84-0.19c-0.42-0.1-0.84-0.2-1.26-0.3c-0.04-0.01-0.07-0.02-0.11-0.03
				c-3.25-0.82-6.4-1.87-9.42-3.14c0.49,0.21,0.98,0.41,1.47,0.61c-15.05-5.82-27.26-16.68-34.11-30.3h-4.89
				c7.15,15.41,20.65,27.72,37.47,34.15c-30.38,1.58-59.18,55.07-68.09,84.09c-0.92,2.48-1.58,5.23-1.77,6.06
				c-1.06,4.15-1.8,8.21-2.2,12.06c-0.55,5.33-0.25,10.36,0.87,14.88c-9.65,2.69-18.35,9.94-19.64,22.4
				c-0.87,8.41,2.32,16.56,8.99,22.94c6.2,5.94,14.89,9.76,24.43,10.74c0.78,0.08,1.59,0.13,2.4,0.13
				c12.87,0,26.91-10.84,35.77-27.64c7.27-13.91,13.29-25.48,18.29-35.13c0.5,2.42,1.38,4.67,2.6,6.71
				c-14.87,9.99-15.55,23.41-15.01,29.3c1.42,15.51,14.51,26.76,31.12,26.76c1.18,0,2.4-0.05,3.66-0.17
				c13.62-1.25,26.21-14.71,32.04-34.22c1.41-4.56,2.7-9.22,3.84-13.34l0.37-1.35c3.27-2.71,6.39-6.07,9.4-10.11
				c3.26,5.52,8.74,8.74,15.16,8.74c2.77,0,5.51-0.58,8.65-1.83c0.71-0.28,1.44-0.62,2.39-1.06c0.24-0.11,0.49-0.23,0.78-0.35
				l8.97-3.59l-0.14-3.19c1.02,0.17,2.08,0.25,3.16,0.25c3.12,0,6.45-0.69,9.89-2.07c1.61-0.64,3.21-1.45,4.78-2.4l6.84-4.17
				l-0.08-2.05c2.16,0.65,4.42,0.98,6.69,0.98c2.76,0,5.41-0.5,7.89-1.49c15.99-6.39,21.2-33.36,16.99-43.9
				c-1.53-3.83-4.4-6.76-7.91-8.33c1.37-20.12,0.05-26.84-1.62-31.02c-3-7.51-9.83-12.41-18.15-13.21c1.43-0.23,2.89-0.49,4.4-0.79
				c48.17-9.64,44.39-36.17,36.07-45.57C452.46,337.94,450.34,336.73,450.34,336.73 M427.77,404.55c1.32,3.31,2.61,9.94,0.85,32.12
				l-0.17,2.03c0.44-0.07,0.88-0.11,1.32-0.11c3.34,0,6.22,2.03,7.53,5.31c3.22,8.07-1.52,30.38-13.19,35.05
				c-1.68,0.67-3.48,1.01-5.36,1.01h0c-5.37,0-10.46-2.65-13.77-6.91c-0.05,2.51-0.04,4.88,0.05,7.05l0.16,4l-3.42,2.08
				c-1.23,0.75-2.5,1.39-3.76,1.9c-2.64,1.05-5.11,1.59-7.36,1.59c-4.73,0-8.53-2.44-10.16-6.53c-0.04-0.11-0.08-0.22-0.12-0.33
				c-0.06,2.68-0.05,5.12,0.04,7.24l0.21,4.83l-4.49,1.8c-0.46,0.18-0.9,0.39-1.33,0.6c-0.63,0.3-1.25,0.58-1.84,0.82
				c-2.3,0.92-4.24,1.35-6.11,1.35c-4.65,0-8.38-2.67-10.25-7.33c-0.94-2.36-1.57-7.02-1.99-12.47
				c-4.86,9.54-10.91,18.56-18.29,24.01c-0.32,1.16-0.65,2.33-0.97,3.51c-1.18,4.29-2.41,8.73-3.78,13.14
				c-4.97,16.61-15.49,28.47-26.16,29.45c-1.04,0.1-2.05,0.14-3.03,0.14c-13.22,0-23.23-8.46-24.34-20.57
				c-0.65-7.01,1.27-19.16,19.39-26.99c-3.89-2.29-6.87-6.13-7.38-11.68c-0.81-8.85,3.71-22.32,8.08-35.35
				c1.33-3.97,2.93-8.74,4.08-12.73c-0.07-0.01-0.14-0.04-0.21-0.06c-3.81,8.29-14.15,28.85-42.66,83.4
				c-7.57,14.35-19.52,23.99-29.74,23.99c-0.57,0-1.13-0.03-1.68-0.09c-16.69-1.73-28.72-13.24-27.37-26.21
				c1.25-12.09,11.79-17.5,21.68-17.5c0.29,0,0.58,0.01,0.86,0.01c-0.26-0.41-0.51-0.83-0.75-1.26c-2.72-4.93-3.76-11.34-3.01-18.52
				c0.37-3.54,1.05-7.28,2.03-11.14c0.03-0.15,0.71-3.12,1.61-5.49c8.75-28.68,37.15-79.52,63.02-79.52c0.67,0,1.33,0.03,1.99,0.1
				c13.26,1.37,22.92,13.46,21.52,26.95c-0.24,2.32-0.67,4.68-1.19,7.05c1.4-0.26,2.83-0.51,4.29-0.64
				c0.35-0.03,0.71-0.05,1.08-0.05c5.48,0,11.68,3.83,13.72,12.17c0.74-2.76,1.45-5.58,2.11-8.44l0.99-4.27l4.29-0.88
				c1.53-0.31,2.97-0.45,4.25-0.57c1.04-0.1,1.95-0.14,2.81-0.14c1.97,0,3.62,0.26,4.99,0.69l1.68-0.61
				c1.67-0.6,3.33-1.46,5.09-2.38c1.6-0.83,3.25-1.68,4.99-2.38c2.09-0.83,4.15-1.26,6.13-1.26c2.24,0,4.34,0.55,6.18,1.57
				c1.96-5.88,4.78-9.87,9.33-11.69c2.33-0.93,4.87-1.42,7.34-1.42c3.41,0,6.47,0.95,8.92,2.69c2.1-4.77,4.91-8,8.89-9.59
				c2.57-1.03,5.48-1.6,8.18-1.6C420.19,395.5,425.51,398.88,427.77,404.55 M390.34,272.53c-0.38,0.24-0.83,0.42-1.28,0.52
				c-2.12,0.42-4.16-0.94-4.58-3.05c-0.42-2.12,0.94-4.16,3.05-4.58c2.11-0.42,4.16,0.94,4.58,3.05v0.07l6.14,2.71l4.61-4.86v-0.07
				c-0.42-2.12,0.94-4.16,3.05-4.58c2.12-0.42,4.16,0.94,4.58,3.05c0.42,2.12-0.94,4.16-3.05,4.58c-0.48,0.1-0.94,0.1-1.39,0.03
				l-3.54,3.71l4.68,2.05c0.38-0.24,0.83-0.42,1.28-0.52c2.12-0.42,4.16,0.94,4.58,3.05c0.42,2.12-0.94,4.16-3.05,4.58
				c-0.49,0.1-1.01,0.1-1.46,0l-3.4,3.47l4.47,1.87c0.42-0.28,0.87-0.45,1.35-0.55c2.12-0.42,4.16,0.94,4.58,3.05
				c0.42,2.12-0.93,4.16-3.05,4.58c-2.12,0.42-4.16-0.94-4.58-3.05l-6.1-2.57l-4.65,4.75c0.42,2.12-0.97,4.16-3.05,4.58
				c-2.12,0.42-4.16-0.94-4.58-3.05c-0.42-2.11,0.94-4.16,3.05-4.58c0.49-0.1,1.01-0.1,1.46,0l3.4-3.47l-4.47-1.87
				c-0.42,0.28-0.87,0.45-1.35,0.55c-2.12,0.42-4.16-0.94-4.58-3.05c-0.42-2.11,0.94-4.2,3.05-4.61c0.49-0.1,0.94-0.1,1.39-0.03
				l3.54-3.71L390.34,272.53z M431.61,357.61c-0.07,0.97-0.24,1.77-0.52,2.46c-0.24,0.62-0.49,1.39-0.8,2.25
				c-0.31,0.87-0.62,1.77-0.97,2.67c-0.35,0.9-0.66,1.7-0.94,2.39c-0.28,0.7-0.49,1.11-0.59,1.28c-0.28,0.11-0.52,0.31-0.69,0.56
				c-0.17,0.24-0.38,0.45-0.59,0.62c-0.45,0.17-0.87,0.38-1.25,0.59c-0.38,0.24-0.73,0.48-1.07,0.76c-0.24-0.11-0.38-0.14-0.52-0.07
				c-0.45,0.28-0.97,0.52-1.53,0.73c-0.55,0.21-1.01,0.48-1.28,0.9c-0.97,0.17-1.77,0.52-2.46,1.01c-0.28-0.1-0.73-0.07-1.35,0.07
				c-0.62,0.17-1.07,0.45-1.35,0.83c-0.38,0-0.62-0.07-0.69-0.17c-2.84,0.97-5.48,1.35-7.91,1.14c-2.43-0.21-4.86-0.83-7.21-1.91
				c-1.7-1.08-3.33-2.25-4.89-3.54s-2.91-2.74-4.13-4.37c-1.18-1.63-2.11-3.54-2.81-5.65c-0.69-2.12-1.01-4.54-1.01-7.25
				c0.07-0.28,0.17-0.48,0.31-0.59s0.17-0.31,0.04-0.59l0.69-0.76c-0.1,0.45-0.14,0.87-0.07,1.21c0.07,0.38,0.07,0.76,0,1.14
				c0.28-0.52,0.45-1.11,0.55-1.84c0.07-0.69,0.28-1.32,0.56-1.84c0.1,0,0.24,0,0.38-0.04c0.14-0.04,0.21,0,0.21,0.14
				c0.11-0.28,0.28-0.52,0.45-0.73c0.21-0.21,0.38-0.24,0.55-0.14c0.28-0.1,0.45-0.35,0.52-0.73c0.07-0.38,0.24-0.59,0.59-0.62
				c0,0.28-0.07,0.52-0.21,0.69c-0.14,0.17-0.24,0.38-0.31,0.69c0.1,0.28,0.24,0.31,0.38,0.14c0.14-0.21,0.31-0.17,0.45,0.03
				c0,0.17-0.03,0.31-0.07,0.45c-0.07,0.14-0.07,0.31-0.07,0.55c0.17,0,0.21-0.1,0.17-0.35c-0.07-0.24,0.07-0.28,0.35-0.17
				c-0.1,0.28-0.14,0.42-0.04,0.38c0.07-0.03,0.21,0,0.38,0.14c0.1,0.45,0.14,0.87,0.07,1.28c-0.07,0.38,0.07,0.76,0.35,1.11
				c0.28-0.1,0.38-0.31,0.31-0.59c-0.07-0.28-0.07-0.55,0.03-0.76c0.17,0.73,0.31,1.49,0.38,2.29c0.07,0.8,0.21,1.56,0.38,2.29
				c0.07,0.1,0.14,0.07,0.21-0.07c0.07-0.17,0.17-0.21,0.31-0.07c0.1,0.35,0.21,0.66,0.35,0.97c0.11,0.31,0.21,0.62,0.35,0.9
				c0.1-0.17,0.14-0.42,0.07-0.73c-0.07-0.31,0-0.52,0.17-0.62c0.38,0.35,0.69,0.76,0.9,1.21c0.21,0.49,0.42,0.97,0.62,1.49
				c0.1,0,0.17-0.07,0.17-0.21c0-0.14,0.07-0.17,0.24-0.14c0.55,0.35,1.01,0.76,1.35,1.32c0.35,0.55,0.73,1.01,1.18,1.39
				c0.1-0.07,0.1-0.14,0-0.21c-0.1-0.07-0.1-0.17,0-0.31c0.45,0.17,0.76,0.45,0.97,0.8c0.21,0.38,0.49,0.69,0.9,0.97
				c0.1,0,0.14-0.04,0.14-0.07c-0.04-0.07,0-0.11,0.14-0.17c0.28,0.11,0.52,0.24,0.7,0.42c0.17,0.17,0.45,0.21,0.83,0.07
				c0.97,0.8,1.84,1.53,2.6,2.15c0.76,0.66,1.56,1.21,2.43,1.67c0.83,0.45,1.8,0.83,2.84,1.14c1.04,0.31,2.36,0.55,3.95,0.73
				c0.45-0.45,0.87-1.04,1.21-1.73c0.38-0.69,0.69-1.46,0.97-2.22c0.28-0.76,0.52-1.49,0.69-2.15c0.17-0.69,0.31-1.18,0.42-1.53
				c-1.18-0.28-2.08-0.55-2.71-0.8c-0.62-0.24-1.46-0.62-2.53-1.08c-2.39-1.01-4.58-2.12-6.59-3.26c-2.01-1.14-3.85-2.46-5.51-3.92
				c-1.66-1.46-3.19-3.05-4.54-4.86c-1.35-1.77-2.53-3.85-3.57-6.14l-1.18-3.23c0.28,0.1,0.49,0.31,0.59,0.55
				c0.1,0.24,0.24,0.49,0.35,0.73c0-0.83-0.24-1.63-0.73-2.32c-0.49-0.69-0.83-1.46-1.07-2.25c0.24,0,0.38,0.07,0.42,0.24
				c0.07,0.17,0.17,0.24,0.35,0.24c0.1-0.28,0.1-0.55,0-0.83c-0.1-0.28-0.24-0.56-0.42-0.83c-0.17-0.28-0.31-0.59-0.38-0.9
				c-0.07-0.31-0.07-0.62,0.04-0.97c-0.28-0.21-0.45-0.52-0.52-0.94c-0.07-0.38-0.07-0.8,0-1.21c0.07-0.42,0.14-0.83,0.31-1.28
				c0.14-0.42,0.31-0.76,0.45-1.08c0.17,0.07,0.28,0.07,0.31,0c0.04-0.07,0.1-0.07,0.21-0.07c0.45-0.73,1.08-1.6,1.87-2.53
				c0.8-0.97,1.63-1.91,2.5-2.84c0.87-0.94,1.7-1.8,2.5-2.64c0.8-0.83,1.46-1.46,1.94-1.91c0.28,0,0.42-0.1,0.38-0.31
				c-0.03-0.21,0-0.38,0.14-0.55c0.24-0.1,0.49-0.14,0.8-0.14c0.31,0.04,0.52-0.03,0.62-0.21c-0.1-0.62-0.24-1.01-0.42-1.18
				c0.24-0.97,0.38-1.84,0.42-2.67c0.07-0.83,0.24-1.7,0.52-2.67c0.21,0,0.42-0.07,0.55-0.21c0.14-0.14,0.28-0.28,0.38-0.42
				c0.1-0.14,0.24-0.24,0.42-0.35c0.17-0.07,0.38-0.07,0.69,0.04c0.24-0.17,0.49-0.38,0.76-0.59c0.28-0.21,0.59-0.21,0.94,0.07
				c0.1-0.07,0.21-0.14,0.24-0.31c0.07-0.14,0.14-0.28,0.24-0.38c0.62,0.1,1.25,0.07,1.84-0.14s1.18-0.42,1.77-0.62
				c0.59-0.21,1.21-0.42,1.84-0.59c0.62-0.17,1.32-0.17,2.05,0c0,0.24,0.07,0.35,0.21,0.38c0.14,0.04,0.17,0.17,0.14,0.38
				c0.69,0.24,1.04,0.49,1.08,0.76c0.04,0.28,0.14,0.76,0.38,1.46c-0.17,0.1-0.17,0.31,0,0.62c0.17,0.31,0.21,0.42,0.07,0.31
				l-0.7,0.52c-0.1,1.08-0.14,2.32-0.03,3.75c0.07,1.42,0.28,2.84,0.59,4.3c0.31,1.46,0.69,2.84,1.14,4.2
				c0.45,1.35,0.97,2.53,1.53,3.47c0.69,1.14,1.32,2.12,1.91,2.98c0.59,0.83,1.21,1.63,1.91,2.29c0.69,0.69,1.46,1.32,2.29,1.91
				c0.83,0.59,1.87,1.21,3.05,1.84c0,0.17,0.03,0.31,0.07,0.38c0.07,0.07,0.1,0.17,0.17,0.31c0,0.17,0.07,0.24,0.21,0.21
				c0.14-0.04,0.28,0,0.38,0.14c-0.07,0.24-0.03,0.38,0.04,0.45c0.07,0.07,0.1,0.28,0.03,0.55c-0.45,0-0.76-0.03-0.94-0.07
				c-0.1,0.35-0.24,0.69-0.38,1.01c-0.14,0.35-0.35,0.62-0.62,0.83c-0.8-0.11-1.21,0.1-1.28,0.69c-0.62-0.17-0.94,0-0.94,0.52
				c-0.17-0.11-0.28-0.24-0.35-0.38c-0.07-0.14-0.14-0.28-0.24-0.38c-0.1,0.35-0.35,0.62-0.73,0.83c-0.38,0.24-0.59,0.45-0.62,0.69
				c-0.1,0.07-0.28,0.1-0.52,0.14c-0.24,0.04-0.38-0.03-0.52-0.21c-0.17,0.35-0.38,0.55-0.69,0.62c-0.28,0.07-0.56,0.21-0.83,0.38
				c-0.17,0.07-0.24,0-0.24-0.14c0-0.14-0.07-0.21-0.17-0.21c-0.55,0.17-0.94,0.49-1.11,0.94c-0.35-0.07-0.66-0.07-0.94,0
				c-0.28,0.07-0.49,0.24-0.59,0.52c-0.28,0.07-0.49,0.07-0.59,0c-0.11-0.07-0.28-0.07-0.52-0.07c-0.45-0.55-1-1.01-1.66-1.28
				c-0.66-0.28-1.14-0.73-1.49-1.35c-2.43-2.22-4.3-4.3-5.55-6.24c-1.28-1.94-2.32-4.23-3.19-6.83c-0.17,0.45-0.42,0.94-0.73,1.39
				c-0.31,0.49-0.62,0.97-0.9,1.46c-0.28,0.49-0.48,0.93-0.62,1.35c-0.14,0.42-0.1,0.8,0.14,1.14c0.9,2.22,1.91,4.2,3.02,5.93
				c1.11,1.77,2.53,3.43,4.33,5.06c1.77,1.63,4.02,3.26,6.69,4.93c2.71,1.66,6.07,3.54,10.16,5.55c0.83,0.1,1.46,0.31,1.77,0.59
				c0.35,0.28,0.87,0.55,1.63,0.83c-0.07,0.28,0.14,0.42,0.59,0.42C431.55,355.87,431.68,356.67,431.61,357.61"/>
			<path class="st2" d="M410.72,116.49c-1.65,1.06-3.81,3.66-4.98,8.24c-0.79,3.09-1.13,6.05-1.19,9.01
				c2.8-2.67,5.03-6.34,6.08-10.13C411.33,120.84,411.34,118.35,410.72,116.49"/>
			<path class="st2" d="M359.77,174.11c3.21-3.05,6.22-7.73,7.47-11.82C364.65,164.75,361.75,168.84,359.77,174.11"/>
			<path class="st2" d="M282.69,166.92c-1.01,2-2.16,3.82-3.48,5.38c0.18,1.73,0.37,3.31,0.57,4.76
				C280.83,173.84,281.81,170.34,282.69,166.92"/>
			<path class="st2" d="M362.98,191.39c-1.52-0.39-2.93-1.01-4.17-1.83c0.83,1.81,2.2,3.43,4.37,4.57c2.01-0.19,4.07-1.03,6.04-2.31
				c-0.65,0.08-1.3,0.12-1.96,0.12C365.84,191.93,364.4,191.75,362.98,191.39"/>
			<path class="st2" d="M162.78,203.34c-0.69-0.49-1.27-0.88-1.77-1.18c-1.93,8.01,1.68,18.86,7.4,28.26
				c0.22-0.42,0.48-0.84,0.76-1.23c2.16-3.02,5.4-4.68,9.12-4.68c0.41,0,0.82,0.02,1.24,0.06
				C173.38,215.34,166.98,206.35,162.78,203.34"/>
			<path class="st2" d="M548.64,208.35c-4.8-7.32-14.5-10.88-29.63-10.88c-7.73,0-16.98,0.89-26.83,2.56
				c0.54-1.69,0.75-3.49,0.63-5.33c-0.47-7-5.7-11.92-9.59-15.01l-6.17-4.9c-1.75-3.42-4.58-6.12-7.28-8.49l-5.85-5.13
				c1.32-3.19,1.58-6.67,0.7-10.04c-1.34-5.14-4.95-9.3-11.03-12.72l-6.44-3.62l-6.26,3.92c-1.39,0.87-3.27,2.15-6.33,4.32
				c-0.92-0.32-1.85-0.54-2.79-0.67c1.3-2,2.63-4.26,4.08-6.9l0.33-0.6c3.63-6.53,6.76-12.17,11.33-13.3l9.94-2.45l-0.49-10.23
				c-0.43-9.08-6.69-16.94-15.22-19.11c-1.52-0.39-3.07-0.58-4.6-0.58c-4.45,0-10.27,1.54-15.2,7.95c-2.67-1.48-5.62-2.64-8.85-3.46
				c-2.16-0.55-4.41-0.83-6.68-0.83c-12.3,0-26.85,8.38-31.61,27.09c-1.55,6.1-2,11.58-1.91,16.63c-1.79-0.3-3.59-0.46-5.39-0.46
				c-14.21,0-25.76,9.17-32.57,20.68c-0.33-0.27-0.67-0.52-1.02-0.75c2.7-13.99,5.24-26.65,7.3-36.84c0.57-2.83,1.1-5.48,1.61-8.03
				c0.32-1.7,0.69-3.38,1.06-5.07c1.18-5.37,2.02-9.24,1.3-13.16c-1.09-5.88-6.31-11.82-15.52-11.82c-2.18,0-4.61,0.3-7.63,0.95
				l-7.62,1.64l-1.85,7.57c-1.93,7.89-4.32,18.91-6.29,28.32c-0.19-0.01-0.37-0.01-0.56-0.01c-1.17,0-2.33,0.11-3.47,0.32
				c-2.43,0.45-4.69,1.33-6.77,2.62c-0.44-8.61-1.77-16.09-3.86-21.16c-2.72-6.57-9.4-10.99-16.63-10.99c-2.19,0-4.3,0.41-6.28,1.23
				c-11.5,4.75-15.11,19.62-16.83,30.39c0,0.01,0,0.02,0,0.02c-2.76-2.37-6.26-3.71-9.97-3.71c-5.2,0-9.42,2.49-13.14,4.69
				l-8.63,5.1l2.73,9.3c1.81,6.17,1.99,9.5,2.11,11.53c0.05,0.89,0.13,2.12,0.4,3.54l-6.89,3.96l0.38,2.18
				c-1.52-2.19-2.97-4.38-4.21-6.45c-3.48-5.78-4.03-8.39-4.11-9.24c0.01-0.01,0.01-0.01,0.02-0.02l7.18-5.54l-3.26-8.63
				c-1-2.64-2.72-4.9-4.98-6.53c-2.51-1.8-5.52-2.75-8.71-2.75c-6.61,0-13.23,3.95-18.16,10.83c-7.04,9.81-6.04,19.61-3.11,27.63
				c-3.14,1.33-5.89,3.52-7.98,6.44c-2.43,3.39-3.53,7.47-3.31,12.22c-1.08-0.12-2.18-0.18-3.27-0.18
				c-9.83,0-19.43,4.85-25.03,12.67c-8.28,11.54-9.03,27.44-2.11,44.76c5.73,14.33,16.37,28.06,28.47,36.74
				c5.87,4.21,12.13,6.43,18.11,6.44c7.13,0,13.46-3.09,17.93-8.73c2.56,2.91,4.87,5.08,7.05,6.64c5.89,4.23,11.75,6.37,17.4,6.37
				c6.59,0,12.53-3.01,16.29-8.26c2.8-3.91,4.42-8.72,4.84-14.35c4.33-1.03,8.11-3.53,10.75-7.19c1.23-1.72,2.18-3.48,2.9-5.26
				c2.06,5.72,5.57,11.92,10.51,18.57c-15.71,11.9-25.91,30.76-25.91,51.99c0,35.96,29.17,65.3,65.13,65.3
				c19.63,0,37.32-8.53,49.25-22.27c-1.49-4.82-2.64-9.82-3.61-14.77c-2.19-10.89,0.83-21.29,3.5-30.49
				c1.08-3.54,2.08-6.9,2.57-9.85l-2.95-31.11c-2.15-2.43-4.51-4.72-7.01-6.8c13.35-17.24,17.38-31.53,11.86-42.52
				c-1.45-2.9-3.43-5.31-5.75-7.32c2.83,0.58,5.67,0.89,8.47,0.89c1.82,0,3.62-0.12,5.39-0.37c-0.07,0.95-0.08,1.9-0.04,2.87
				c0.3,6.96,3.38,13.44,8.91,18.74c4.4,4.22,10.78,6.45,18.46,6.45c6.63,0,13.77-1.64,20.62-4.74c2.89-1.28,5.54-2.48,8.04-3.66
				c1.21,0.24,2.47,0.44,3.79,0.59c0.5,2.65,1.5,5.17,2.97,7.4c2.5,3.82,6.35,6.81,11.46,8.92c-0.47,4.83,0.33,9.92,2.38,14.8
				c5.31,12.63,22.83,16.71,30.48,16.71c2.97,0,5.52-0.47,7.81-1.43c2.11-0.89,3.91-2.2,5.29-3.85c2.43,0.29,4.9,0.44,7.31,0.44
				c4.21,0,10.29-0.45,15.35-2.57c6.88-2.89,11.6-8.2,13.31-14.94c1.27-4.99,0.74-10.64-1.47-15.9c-1.08-2.57-2.5-4.89-4.24-6.92
				c7.59-1.86,14.92-4.43,19.94-7.72c3.62-2.37,6.32-6.25,7.43-10.65C551.98,217.24,551.2,212.25,548.64,208.35 M252.28,218.41
				c3.86,8.04,8.2,19.83,1.3,29.45c-2.37,3.3-6.01,5.12-10.24,5.12c-0.54,0-1.1-0.03-1.66-0.09c0.47,6.9-0.76,12.42-3.69,16.51
				c-2.62,3.65-6.61,5.66-11.24,5.66c-4.32,0-8.96-1.75-13.77-5.21c-3.55-2.55-7.57-7.23-11.89-13.09
				c-0.55,2.46-1.58,4.78-3.08,6.86c-3.31,4.61-8.15,7.15-13.64,7.15h0c-4.67,0-9.68-1.82-14.48-5.27
				c-11.17-8.02-21.01-20.72-26.32-33.99c-6.11-15.27-5.62-29.06,1.38-38.82c4.46-6.21,12.11-10.07,19.97-10.07
				c4.09,0,8.07,1.04,11.65,3.04c-2.91-7.72-2.92-13.63-0.01-17.68c2.42-3.38,6.15-5.31,10.22-5.31c0.59,0,1.18,0.04,1.77,0.12
				c-6.25-11.57-6.97-20.42-0.9-28.87c3.7-5.16,8.6-8.23,13.11-8.23c1.89,0,3.64,0.55,5.09,1.58c1.26,0.91,2.22,2.17,2.79,3.67
				l1.63,4.31l-3.65,2.82c-0.35,0.27-1.04,0.99-1.47,1.59c-3.85,5.37,5.92,19.49,17.05,33.96c6.89,8.96,12.54,16.65,17.14,23.33
				c-0.96-4.89-1.8-10.62-2.71-17.1c-0.38-2.69-0.81-5.82-1.26-8.62c-0.46,0.08-0.93,0.12-1.39,0.12c-2.64,0-5.06-1.36-6.48-3.64
				c-0.7-1.14-1.18-2.4-1.41-3.74l-0.74-4.29l3.78-2.17c1.18-0.68,2.34-1.56,3.57-2.5c0.05-0.03,0.1-0.07,0.14-0.11
				c-0.02-0.03-0.04-0.06-0.06-0.09c-1.26-2.04-1.48-4.19-1.61-6.23c-0.12-2.13-0.33-6.04-2.35-12.91l-1.37-4.65l4.46-2.63
				c3.33-1.97,6.47-3.83,9.97-3.83c3.23,0,6.09,1.64,7.85,4.48c3.4,5.5,1.13,12.72-1.71,20.25l-0.42,1.1
				c-0.03,0.08-0.06,0.16-0.09,0.24c2.51,0.85,4.68,2.61,6.22,5.09c1.02,1.64,1.84,3.83,2.58,6.61c0-0.52,0-1.05,0.01-1.58
				c-0.6-13.74-0.01-27.14,1.68-37.75c2.35-14.77,6.5-22.91,13.06-25.62c1.22-0.51,2.54-0.76,3.9-0.76c4.67,0,9.14,2.94,10.88,7.14
				c3.07,7.43,4.29,21.68,3.1,36.31c-0.08,0.97-0.17,1.97-0.28,2.98c2.58-7.63,6.85-15.56,14.69-17.01
				c0.76-0.14,1.54-0.21,2.33-0.21c1.73,0,3.58,0.35,5.39,1.08c2.23-10.76,5.19-24.71,7.5-34.14l0.93-3.78l3.81-0.82
				c2.58-0.55,4.59-0.81,6.32-0.81c6.01,0,8.8,3.47,9.4,6.72c0.5,2.68-0.2,5.87-1.26,10.69c-0.37,1.69-0.75,3.43-1.1,5.24
				c-0.5,2.48-1.03,5.13-1.6,7.96c-2.07,10.28-4.64,23.06-7.37,37.2c-0.31,1.63-0.63,3.27-0.95,4.9c3.47,0.11,6.22,2.53,6.88,6.09
				c1.3,7.01-5.79,24.28-16.41,26.24c-0.62,0.11-1.26,0.17-1.89,0.17c-2.41,0-4.78-0.84-6.79-2.25c-2.26,3-4.93,4.92-8.21,5.52
				c-0.67,0.12-1.38,0.19-2.08,0.19c-2.39,0-4.99-0.77-7.34-2.18c-2.82,5.1-5.99,8.29-9.68,9.82c-1.69,0.7-3.51,1.05-5.41,1.05
				c-2.07,0-4.09-0.42-5.94-1.19c-2.04,7.14-4.81,9.78-7.03,11.15c-2.39,1.48-5.28,2.3-8.12,2.3c-1.18,0-2.33-0.14-3.41-0.41
				C251.68,217.18,251.98,217.8,252.28,218.41 M351.92,230.81c2.74,5.55-1.14,15.47-11.06,27.95c-8.84-4.51-18.87-7.08-29.51-7.08
				c-9.47,0-18.45,2.05-26.6,5.69c-9.09-11.83-12.62-21.23-9.95-26.57c3.47-7.01,18.45-9.16,26.01-9.16h25.21
				C333.57,221.65,348.38,223.8,351.92,230.81 M339.29,295.07c-0.35,0.69-0.35,1.56,0,2.63c-0.07,0.24-0.11,0.42-0.17,0.59
				c-0.07,0.17-0.03,0.38,0.07,0.69c-0.17,0.9-0.42,2.22-0.73,3.99c-0.31,1.77-0.62,3.61-0.97,5.52c-0.35,1.94-0.73,3.74-1.15,5.44
				c-0.42,1.7-0.87,2.95-1.32,3.75v0.76c-0.45,0.69-0.83,1.42-1.18,2.25c-0.35,0.83-0.66,1.67-0.97,2.5
				c-0.31,0.83-0.62,1.7-0.97,2.5c-0.35,0.83-0.73,1.56-1.18,2.25c-0.07,0.1-0.04,0.21,0.03,0.24c0.07,0.07,0.14,0.14,0.14,0.24
				c-0.45,0.8-0.8,1.7-1.01,2.77c-0.24,1.04-0.55,2.01-1.01,2.84c0.24,0.55,0.28,1.07,0.17,1.56c-0.1,0.49-0.24,0.94-0.42,1.39
				c-0.17,0.45-0.31,0.94-0.42,1.46c-0.1,0.52-0.07,1.04,0.17,1.63c-0.07,0.38-0.1,0.76-0.17,1.15c-0.07,0.38-0.07,0.73,0,1.08
				c-0.28,0.1-0.45,0.35-0.52,0.69c-0.07,0.35-0.31,0.49-0.76,0.42c-0.07,0.17-0.07,0.35-0.07,0.52c0,0.17-0.07,0.31-0.17,0.42
				c-0.45-0.07-0.8,0-1.07,0.17c-0.24,0.17-0.49,0.38-0.73,0.69c-0.24,0.28-0.45,0.55-0.73,0.76c-0.24,0.24-0.62,0.35-1.08,0.35
				c-0.1,0.07-0.1,0.11,0,0.17c0.1,0.07,0.1,0.14,0,0.24c-0.55,0.1-1.01,0.28-1.28,0.52c-0.28,0.24-0.69,0.31-1.28,0.24
				c-0.28,0.24-0.52,0.49-0.69,0.76c-0.07,0.07-0.17,0.1-0.35,0.14s-0.24,0-0.24-0.14c-0.17,0-0.24,0.07-0.21,0.21
				c0.03,0.14,0,0.28-0.14,0.38c-0.35-0.11-0.59-0.07-0.73,0.14c-0.14,0.21-0.38,0.35-0.73,0.45c-0.1-0.07-0.24-0.14-0.38-0.24
				c-0.14-0.1-0.35-0.1-0.62,0c-0.52-0.52-1.01-1.04-1.46-1.56c-0.45-0.52-0.83-1.21-1.11-2.01c-1.63-3.78-3.15-7.7-4.51-11.69
				c-1.35-3.99-2.71-7.98-3.99-12c-0.28,0.1-0.42,0.35-0.42,0.73c0,0.38-0.1,0.62-0.35,0.8c0.17,0.35,0.21,0.69,0.07,1.01
				c-0.1,0.35-0.24,0.66-0.42,0.94c-0.17,0.28-0.31,0.59-0.42,0.94c-0.1,0.35-0.07,0.69,0.07,1.01c-0.52,0.8-0.83,1.77-0.94,2.91
				c-0.1,1.14-0.28,2.22-0.52,3.19c-0.1,0.17-0.07,0.24,0.07,0.17c0.17-0.07,0.24-0.03,0.24,0.07c-0.07,0.28-0.14,0.49-0.21,0.59
				c-0.07,0.1-0.17,0.24-0.31,0.35c0.21,1.14,0.38,2.53,0.52,4.16c0.1,1.63,0.52,3.09,1.18,4.33c-0.1,0.35-0.28,0.59-0.52,0.73
				c-0.24,0.14-0.42,0.31-0.59,0.55c-0.38,0-0.59-0.07-0.59-0.17c-0.24,0.11-0.38,0.28-0.52,0.52c-0.1,0.24-0.28,0.38-0.52,0.52
				c-0.1-0.07-0.24-0.07-0.38-0.04c-0.14,0.04-0.28,0-0.38-0.14c0,0.17-0.1,0.35-0.31,0.52c-0.21,0.17-0.35,0.1-0.45-0.17
				c-0.1,0.24-0.24,0.42-0.42,0.56c-0.17,0.14-0.35,0.28-0.52,0.38c-0.1,0-0.21-0.03-0.24-0.07c-0.07-0.07-0.14-0.1-0.24-0.17
				c-0.24,0.1-0.38,0.24-0.52,0.42c-0.1,0.17-0.24,0.31-0.42,0.42c-0.28,0-0.52-0.07-0.69-0.24c-0.45,0.24-0.97,0.45-1.53,0.62
				c-0.56,0.21-1.15,0.31-1.7,0.31c-0.1,0.1-0.17,0.24-0.14,0.38c0.04,0.14,0,0.28-0.14,0.38c-0.45,0.1-0.87,0.07-1.21-0.07
				c-0.38-0.17-0.62-0.38-0.8-0.69c-0.1-0.07-0.14,0-0.07,0.17c0.07,0.17,0,0.24-0.17,0.17c-0.1,0.07-0.17,0.04-0.21-0.03
				c-0.03-0.07-0.03-0.07-0.03,0.03c-0.62-0.45-1.11-1.08-1.46-1.84c-0.35-0.76-0.55-1.63-0.69-2.6c-0.07-0.1-0.1-0.14-0.17-0.14
				c-0.07,0.04-0.1,0-0.17-0.04c0.1-0.35,0.07-0.59-0.17-0.76c-0.24-0.17-0.38-0.35-0.52-0.52c-0.1-0.21-0.14-0.45-0.07-0.62
				c0.07-0.21-0.04-0.35-0.24-0.45c0-0.9-0.24-1.7-0.73-2.32c-0.49-0.66-0.73-1.39-0.73-2.15c-0.28-0.17-0.48-0.52-0.59-1.01
				c-0.1-0.52-0.14-0.97-0.07-1.35c-0.45-0.62-0.8-1.39-1.01-2.25c-0.24-0.87-0.49-1.66-0.76-2.32c0.07-0.07,0.14-0.07,0.21-0.07
				c0.07,0,0.14-0.04,0.14-0.07c-0.24-0.55-0.38-1.21-0.42-1.91c-0.07-0.69-0.24-1.35-0.52-1.91c-0.1-0.62-0.31-1.32-0.62-2.12
				c-0.31-0.8-0.45-1.56-0.38-2.29c-0.38-1.14-0.69-2.39-0.9-3.82c-0.21-1.42-0.31-2.81-0.38-4.16c-0.07-0.1-0.14-0.21-0.21-0.24
				c-0.07-0.07-0.17-0.14-0.21-0.24c-0.1-0.9-0.17-1.7-0.17-2.39c0-0.69-0.14-1.42-0.42-2.22c0.28-0.35,0.35-0.69,0.17-1.08
				c-0.17-0.38-0.28-0.76-0.35-1.14c0.17-0.07,0.28-0.04,0.31,0.07c0.03,0.1,0.1,0.1,0.21,0c0.1-0.45,0.07-0.76-0.07-0.9
				c-0.17-0.14-0.31-0.35-0.42-0.62c0-0.07-0.07-0.35-0.17-0.9s-0.21-1.11-0.31-1.7c-0.07-0.59-0.17-1.14-0.24-1.63
				c-0.07-0.49-0.14-0.76-0.14-0.8c-0.07-1.32-0.14-2.29-0.24-2.98c-0.1-0.69-0.49-1.42-1.11-2.22c0.17-0.38,0.52-0.62,1.07-0.62
				c0.52-0.03,0.83-0.31,0.9-0.8c0.62-0.07,1.11-0.21,1.46-0.45c0.35-0.24,0.8-0.45,1.35-0.62c0.1-0.1,0.17-0.24,0.17-0.42
				c0-0.17,0.07-0.28,0.17-0.35c0.21-0.07,0.38-0.04,0.42,0.07c0.07,0.1,0.14,0.21,0.24,0.24c0.17-0.07,0.24-0.17,0.24-0.38
				s0.07-0.35,0.17-0.45c0.17,0,0.28,0.07,0.31,0.17c0.03,0.1,0.14,0.17,0.31,0.17c0-0.21,0.07-0.42,0.24-0.55
				c0.17-0.14,0.38-0.24,0.59-0.31c0.24-0.07,0.45-0.07,0.69,0c0.21,0.07,0.38,0.21,0.42,0.42c0.17-0.17,0.31-0.35,0.45-0.55
				c0.14-0.21,0.31-0.35,0.56-0.45c0.35,0.17,0.69,0.17,1.11-0.04c0.38-0.21,0.73-0.42,1.01-0.62c0.45,0.1,0.83,0.24,1.11,0.42
				c0.28,0.17,0.55,0.38,0.83,0.59c-0.07,0.28-0.04,0.49,0.07,0.62c0.1,0.14,0.24,0.31,0.35,0.55c-0.1,1.53-0.07,3.12,0.14,4.75
				c0.21,1.63,0.45,3.26,0.73,4.86c0.28,1.6,0.59,3.15,0.9,4.68c0.31,1.53,0.52,2.91,0.62,4.16c0.28,1.32,0.49,2.57,0.59,3.78
				c0.1,1.21,0.42,2.39,0.94,3.54c0,0.1-0.07,0.17-0.17,0.21c-0.1,0.03-0.14,0.17-0.07,0.38c0.28,0.28,0.42,0.59,0.42,0.9
				c0,0.31,0.07,0.62,0.17,0.9c0.35,0,0.45-0.1,0.38-0.35c-0.07-0.21-0.03-0.38,0.14-0.52c0.1,0,0.14,0.03,0.04,0.07
				c-0.07,0.07-0.1,0.14-0.04,0.24c0.45-1.01,0.8-2.22,1.08-3.57c0.24-1.35,0.45-2.77,0.62-4.2c0.17-1.46,0.35-2.84,0.52-4.23
				c0.17-1.39,0.38-2.64,0.69-3.78c0.17,0,0.24-0.03,0.24-0.07c0.07-0.17,0-0.24-0.17-0.24c-0.17,0-0.21-0.1-0.07-0.35
				c0.1-0.07,0.17-0.07,0.17,0c0,0.07,0.03,0.07,0.07,0.07c-0.07-0.69-0.07-1.35-0.04-2.01c0.04-0.66,0.17-1.35,0.45-2.08
				c0.28-0.35,0.59-0.45,0.9-0.31s0.73,0.17,1.25,0.04c0.17-0.17,0.38-0.31,0.69-0.38c0.28-0.07,0.52-0.24,0.69-0.45
				c0.28-0.07,0.49-0.03,0.62,0.04c0.14,0.07,0.31,0.17,0.45,0.21c0-0.28,0.17-0.49,0.52-0.62c0.35-0.14,0.55-0.07,0.69,0.21
				c0.1-0.07,0.17-0.14,0.21-0.31c0.04-0.14,0.1-0.24,0.21-0.31c0.38,0.17,0.83,0.24,1.28,0.24c0.45,0,0.83-0.21,1.11-0.69
				c0.28,0.07,0.45,0.17,0.55,0.35c0.07,0.17,0.28,0.28,0.55,0.35c0.1-0.17,0.14-0.38,0.07-0.59c-0.07-0.21,0.07-0.35,0.42-0.35
				v0.69c0.28,0.1,0.45,0.07,0.52-0.07c0.07-0.17,0.11-0.31,0.17-0.42c0.1,0,0.21,0.04,0.31,0.07c0.07,0.07,0.21,0.07,0.38,0
				c-0.1,0.45-0.04,0.73,0.21,0.83c0.24,0.1,0.45,0.31,0.56,0.59c0.24,0,0.38-0.07,0.42-0.21c0.07-0.14,0.24-0.14,0.52-0.03
				c0.1,0.1,0.1,0.38,0,0.76c0.24,0.62,0.38,1.28,0.42,1.94c0.07,0.69,0.24,1.25,0.52,1.7v0.76c0.35,0.97,0.62,1.94,0.9,2.88
				c0.24,0.97,0.62,1.87,1.07,2.71c0.07,0.8,0.17,1.7,0.35,2.67c0.17,1.01,0.38,2.01,0.62,3.02c0.24,1.01,0.52,2.01,0.8,2.98
				c0.28,0.97,0.52,1.77,0.76,2.46c0.21,1.14,0.59,2.25,1.11,3.4c0.52,1.14,0.94,2.25,1.28,3.4c0.38-0.28,0.66-0.83,0.76-1.7
				c0.52-0.83,0.94-1.84,1.32-2.91c0.38-1.11,0.73-2.25,1.07-3.43c0.35-1.18,0.69-2.36,1.01-3.54c0.35-1.14,0.73-2.18,1.18-3.09
				c0.17-0.69,0.38-1.59,0.59-2.7c0.24-1.14,0.42-2.29,0.59-3.54c0.17-1.21,0.31-2.39,0.38-3.54c0.07-1.14,0.07-2.05-0.04-2.7
				c-0.07-0.24-0.21-0.38-0.42-0.42c-0.24-0.07-0.28-0.21-0.17-0.42c0.1-0.1,0.17-0.07,0.21,0.07c0.04,0.17,0.1,0.21,0.21,0.07
				c-0.1-0.8-0.24-1.7-0.35-2.67c-0.1-1.01-0.35-1.84-0.69-2.5c-0.17,0.24-0.17,0.49-0.04,0.76c0.14,0.28,0.17,0.55,0.14,0.83
				c-0.17-0.17-0.28-0.45-0.35-0.83c-0.07-0.38-0.14-0.76-0.24-1.11c0.24,0.1,0.38,0.17,0.42,0.17c0-0.52-0.17-0.8-0.45-0.9
				c-0.31-0.07-0.42-0.35-0.31-0.8c0.28-0.07,0.42,0.1,0.42,0.52c0.07-0.28-0.04-0.66-0.24-1.15c-0.24-0.48-0.14-0.87,0.24-1.14
				c0.21-0.07,0.38,0,0.42,0.21c0.07,0.21,0.14,0.35,0.24,0.45c0.38-0.1,0.76-0.24,1.07-0.42c0.31-0.17,0.52-0.52,0.62-1.11
				c0.35,0.07,0.62,0,0.8-0.17c0.21-0.17,0.38-0.38,0.56-0.59l0.24,0.76c0.1-0.17,0.17-0.38,0.17-0.59c0-0.24,0.07-0.42,0.17-0.59
				c0.28,0.07,0.45,0.21,0.45,0.45c0.04,0.24,0.14,0.45,0.38,0.55c0.24-0.1,0.35-0.28,0.38-0.45c0.04-0.21,0.14-0.38,0.31-0.55
				c0.28,0.07,0.55,0.1,0.83,0.17c0.28,0.07,0.52-0.07,0.76-0.35c0-0.24-0.07-0.38-0.17-0.42c-0.1-0.07-0.1-0.14,0-0.24
				c0.17-0.07,0.28-0.03,0.31,0.07c0.03,0.1,0.1,0.21,0.21,0.24c0.35,0.07,0.62,0,0.9-0.21c0.24-0.21,0.52-0.24,0.8-0.14
				c0.17-0.1,0.28-0.21,0.31-0.35c0.03-0.11,0.14-0.21,0.31-0.35c0.52,0.1,0.9,0.42,1.15,0.9c0.24,0.49,0.45,1.04,0.62,1.7
				c0.17,0.66,0.31,1.28,0.45,1.91c0.14,0.62,0.35,1.14,0.62,1.53c0.07,0.24,0.04,0.42-0.03,0.59c-0.07,0.17-0.1,0.38-0.04,0.59
				c0.1,0.1,0.17,0.14,0.17,0.07s0.07-0.07,0.17-0.07c0.24,0.52,0.21,0.94-0.04,1.32C338.91,294.21,338.94,294.62,339.29,295.07
				 M311.3,262.02c-11.76,0-22.79,3.78-32.18,9.05c9.05-6.76,20.18-10.75,32.18-10.75s23.1,3.99,32.18,10.75
				C334.09,265.8,323.1,262.02,311.3,262.02 M355.38,356.32c-10.65,12.42-26.46,20.29-44.08,20.29c-17.62,0-33.43-7.87-44.08-20.29
				c11.17,11.06,26.81,17.93,44.08,17.93S344.22,367.35,355.38,356.32 M325.8,207.05H300.8c-2.77,0-9.08,0.21-15.97,1.8
				c3.18-1.56,6-3.97,8.52-7.29c1.65,0.44,3.32,0.68,4.93,0.68c1.09,0,2.17-0.1,3.21-0.29c3.11-0.58,5.93-1.93,8.44-4.05
				c1.76,0.58,3.58,0.88,5.42,0.88c1.02,0,2.03-0.09,3.03-0.28c4.32-0.8,8.11-3.22,11.27-6.48c2.01,6.57,5.87,12.26,11.33,16.65
				C334.4,207.25,328.46,207.05,325.8,207.05 M544.74,220.52c-0.73,2.9-2.48,5.44-4.8,6.96c-6.67,4.38-20.3,8.15-33.93,9.74
				c0.95,0.25,1.88,0.53,2.81,0.84c6.3,2.07,10.71,6,13.1,11.68c1.69,4.02,2.11,8.26,1.17,11.95c-1.22,4.8-4.66,8.61-9.69,10.73
				c-3.2,1.35-7.79,2.09-12.93,2.09c-3.36,0-7.01-0.32-10.63-1.03c-0.05,0.19-0.1,0.36-0.15,0.51c-0.67,1.98-2.17,3.55-4.23,4.42
				c-1.5,0.63-3.27,0.94-5.39,0.94c-6.73,0-20.9-3.79-24.74-12.9c-2.43-5.79-2.61-11.66-0.87-16.55c-6.48-1.64-11.01-4.37-13.5-8.17
				c-1.84-2.8-2.62-6.35-2.21-9.85c-4.01-0.06-7.51-0.48-10.46-1.27c-3.03,1.45-6.28,2.93-9.85,4.52c-6.07,2.74-12.35,4.2-18.1,4.2
				c-6.04,0-10.93-1.63-14.15-4.72c-4.35-4.17-6.77-9.19-7-14.52c-0.2-4.58,1.27-8.95,4.14-12.46c-4.79,2.59-10.12,4.01-15.71,4.01
				h0c-2.94,0-5.94-0.39-8.94-1.15c-18.88-4.81-27.96-20.19-23.12-39.2c3.66-14.39,15.81-28.97,31.95-28.97
				c2.15,0,4.32,0.27,6.44,0.81c2.17,0.55,4.14,1.4,5.89,2.51c-0.9-7.28-1.35-14.98,0.99-24.18c3.94-15.47,15.68-22.4,25.58-22.4
				c1.76,0,3.49,0.21,5.15,0.64c4.97,1.26,9.1,3.46,12.26,6.43c2.54-5.55,6.61-10.72,13.32-10.72c1.01,0,2.05,0.13,3.07,0.39
				c5.9,1.5,10.23,7,10.53,13.37l0.24,5.11l-4.97,1.23c-7.2,1.78-11.12,8.84-15.28,16.32l-0.33,0.6c-2.07,3.77-3.86,6.69-5.63,9.15
				l-0.09,0.12c-4.11,5.44-9.74,8.68-15.08,8.68c-1.08,0-2.14-0.13-3.16-0.39c-0.82-0.21-1.6-0.49-2.33-0.84
				c0.91,7.27,1.78,15.31,0.46,24.57c5.16-4.4,11.38-9.26,17.46-13.83l-1.41-1.14l1.27-4.04c0.3-0.95,0.58-1.51,0.97-2.15
				c1.59-2.61,4.14-4.11,6.98-4.11c1.34,0,2.66,0.33,3.93,0.99c0.48,0.25,0.95,0.51,1.42,0.77c4.35-3.11,7.19-5.11,8.99-6.23
				l3.13-1.96l3.22,1.81c4.53,2.54,7.16,5.45,8.05,8.87c0.66,2.54,0.26,5.2-1.14,7.5c-0.47,0.78-1.12,1.56-2.03,2.43l1.46,0.89
				l-0.03,3.53c-0.02,1.68-0.42,3.19-1.21,4.48c-0.25,0.41-0.53,0.79-0.85,1.14c1.15-0.61,2.1-1.19,2.62-1.65l4.11-3.68l4.15,3.64
				c4.12,3.61,6.71,6.63,6.88,10.49c0.04,0.9-0.06,1.78-0.3,2.63c0.1-0.05,3.91-2.08,3.91-2.08l3.19,2.54
				c4.78,3.8,7.02,7.05,7.25,10.55c0.16,2.32-0.64,4.53-2.26,6.21c-1.95,2.03-5.54,3.88-12.85,7.53c-2.31,1.16-4.87,2.44-7.44,3.78
				c2.05-0.43,4.17-0.89,6.35-1.4c3.45-0.96,7.06-1.86,10.73-2.68l0.13-0.03c13.91-3.11,27.31-4.83,37.75-4.83
				c12.87,0,20.86,2.64,24.42,8.07C545.04,214.22,545.52,217.41,544.74,220.52"/>
			<path class="st2" d="M441.56,172.96c-4.92,3.69-10.3,7.84-16.26,12.53c1.03-0.41,2.02-0.82,2.96-1.2c4.16-1.94,8.66-3.8,13-5.61
				c1.69-0.7,3.35-1.39,4.94-2.06l0.11-0.05c0.73-0.31,1.92-0.81,3.27-1.41c-0.2,0.01-0.41,0.02-0.62,0.02
				C446.96,175.18,444.78,174.55,441.56,172.96"/>
			<path class="st2" d="M246.05,490.14c1.77-2.08,3.85-4.92,6.08-8.66l0.22-0.37l0.27-0.34c0.12-0.17,0.67-0.98,2.21-4.13
				c12.37-25.72,22.13-46.76,26.92-57.93c-9.9,12.48-23.71,36.63-32.63,60.23C247.72,483.04,246.67,486.87,246.05,490.14"/>
			<path class="st3" d="M498.52,362.27h-28.7l-0.64-1.33c2.6-3.29,13.69-16.81,16-19.81c3.06-3.81,4.27-5.95,4.27-8.89
				c0-3.23-2.71-6.12-7.16-6.12c-2.89,0-5.95,0.87-9.24,3.52l0.06-9.53c3.24-1.62,6.99-2.31,10.45-2.31
				c9.65,0.06,15.83,6.06,15.83,13.92c0,5.66-2.95,8.95-6.7,13.57c-1.5,1.85-4.85,5.72-7.85,9.07h16.92L498.52,362.27z"/>
			<path class="st3" d="M539.75,339.28v3c0,14.09-7.34,21.37-17.27,21.37c-9.82,0-17.21-7.28-17.21-21.37v-3
				c0-14.27,7.39-21.49,17.21-21.49C532.48,317.8,539.75,325.02,539.75,339.28 M530.17,339.4c0-9.12-3.12-13.4-7.68-13.4
				c-4.39,0-7.68,4.27-7.68,13.4v3.01c0,9.12,3.29,13.34,7.68,13.34c4.5,0,7.68-4.22,7.68-13.34V339.4z"/>
			<polygon class="st3" points="561.29,362.27 551.7,362.27 551.7,332.87 543.96,340.44 543.96,328.19 553.78,319.18 561.29,319.18 
							"/>
			<path class="st3" d="M583.64,362.27h-11.9c5.2-5.43,10.34-11.15,14.03-16.29l-0.11-0.11c-1.91,0.98-3.99,1.56-6.36,1.56
				c-7.56,0-13.69-6.24-13.69-14.04c0-8.55,6.99-15.59,17.1-15.59c9.82,0,17.09,5.77,17.09,15.54
				C599.81,342.98,591.49,353.14,583.64,362.27 M590.28,333.1c0-4.04-3.47-7.39-7.56-7.39c-4.22,0-7.57,3.35-7.57,7.39
				c0,4.16,3.35,7.45,7.57,7.45C586.81,340.55,590.28,337.26,590.28,333.1"/>
			<polygon class="st3" points="111.72,311.92 145.22,311.92 145.22,324.09 125.53,324.09 125.53,334.72 143.21,334.72 
				143.21,345.81 125.53,345.81 125.53,357.59 145.84,357.59 145.84,369.77 111.72,369.77 			"/>
			<path class="st3" d="M183.83,324.25c-2.95-1.4-7.37-2.33-11.17-2.33c-5.04,0-7.36,1.71-7.36,4.42c0,2.71,2.87,5.04,8.92,9.38
				c8.92,6.74,13.41,11.24,13.41,18.45c0,10.39-9.61,16.52-21.79,16.52c-4.57,0-11.01-0.85-14.11-2.09l0.08-11.94
				c3.33,1.4,8.84,2.87,13.96,2.87c4.88,0,7.67-2.4,7.67-5.12c0-2.79-3.25-5.43-9.69-10c-9.93-7.06-12.87-11.4-12.87-18.07
				c0-8.07,6.51-15.59,21.17-15.59c3.88,0,8.53,0.54,11.86,1.78L183.83,324.25z"/>
			<polygon class="st3" points="199.48,324.33 188.47,324.33 188.47,311.92 224.29,311.92 224.29,324.33 213.29,324.33 
				213.29,369.77 199.48,369.77 			"/>
			<rect x="224.45" y="357.13" class="st3" width="14.42" height="12.64"/>
		</g>
	</g>
</g>
</svg>
